<svg width="82" height="46" viewBox="0 0 82 46" fill="none" xmlns="http://www.w3.org/2000/svg">
<g id="player-vs-cpu">
<circle id="Oval Copy 20" cx="59" cy="23" r="23" fill="white"/>
<g id="Group 2">
<circle id="Oval Copy 11" cx="59" cy="23" r="20" fill="#FD6687"/>
<g id="Group 8">
<g id="Group 7">
<g id="Group 9">
<g id="Group 10">
<path id="Path Copy" d="M66.083 14.4167V17.4167H61.083V14.4167H66.083Z" fill="white"/>
<path id="Path Copy 2" d="M56.917 14.4167V17.4167H51.917V14.4167H56.917Z" fill="white"/>
<path id="Path 2" d="M69 20.25V23.25H49V20.25H69Z" fill="white"/>
</g>
</g>
</g>
</g>
</g>
<circle id="Oval Copy 19" cx="23" cy="23" r="23" fill="white"/>
<g id="Group">
<circle id="Oval Copy 11_2" cx="23" cy="23" r="20" fill="#FD6687"/>
<g id="Group 8_2">
<path id="Oval Copy 11_3" d="M35.25 21.2085C35.25 27.5598 30.1013 32.7085 23.75 32.7085C17.3987 32.7085 12.25 27.5598 12.25 21.2085H15.25C15.25 25.9029 19.0556 29.7085 23.75 29.7085C28.4444 29.7085 32.25 25.9029 32.25 21.2085H35.25Z" fill="white"/>
<g id="Group 7_2">
<path id="Path" d="M20.542 14.6667V19.6538H17.542V14.6667H20.542Z" fill="white"/>
<path id="Path Copy_2" d="M28.875 14.6667V19.6538H25.875V14.6667H28.875Z" fill="white"/>
</g>
</g>
</g>
</g>
</svg>
